<mxfile host="Electron" agent="Mozilla/5.0 (Windows NT 10.0; Win64; x64) AppleWebKit/537.36 (KHTML, like Gecko) draw.io/26.0.9 Chrome/128.0.6613.186 Electron/32.2.5 Safari/537.36" version="26.0.9">
  <diagram id="C5RBs43oDa-KdzZeNtuy" name="Page-1">
    <mxGraphModel dx="905" dy="875" grid="1" gridSize="10" guides="1" tooltips="1" connect="1" arrows="1" fold="1" page="1" pageScale="1" pageWidth="827" pageHeight="1169" math="0" shadow="0">
      <root>
        <mxCell id="WIyWlLk6GJQsqaUBKTNV-0" />
        <mxCell id="WIyWlLk6GJQsqaUBKTNV-1" parent="WIyWlLk6GJQsqaUBKTNV-0" />
        <mxCell id="9_ySemquCze8BxVINl9N-12" style="edgeStyle=orthogonalEdgeStyle;rounded=0;orthogonalLoop=1;jettySize=auto;html=1;entryX=0.5;entryY=0;entryDx=0;entryDy=0;" parent="WIyWlLk6GJQsqaUBKTNV-1" source="9_ySemquCze8BxVINl9N-0" target="9_ySemquCze8BxVINl9N-11" edge="1">
          <mxGeometry relative="1" as="geometry" />
        </mxCell>
        <mxCell id="9_ySemquCze8BxVINl9N-0" value="Đặt hàng" style="strokeWidth=2;html=1;shape=mxgraph.flowchart.start_2;whiteSpace=wrap;" parent="WIyWlLk6GJQsqaUBKTNV-1" vertex="1">
          <mxGeometry x="80" y="60" width="100" height="100" as="geometry" />
        </mxCell>
        <mxCell id="9_ySemquCze8BxVINl9N-1" value="Thay đổi thông tin người dùng" style="rounded=1;whiteSpace=wrap;html=1;absoluteArcSize=1;arcSize=14;strokeWidth=2;" parent="WIyWlLk6GJQsqaUBKTNV-1" vertex="1">
          <mxGeometry x="80" y="420" width="100" height="100" as="geometry" />
        </mxCell>
        <mxCell id="9_ySemquCze8BxVINl9N-18" style="edgeStyle=orthogonalEdgeStyle;rounded=0;orthogonalLoop=1;jettySize=auto;html=1;" parent="WIyWlLk6GJQsqaUBKTNV-1" source="9_ySemquCze8BxVINl9N-2" target="9_ySemquCze8BxVINl9N-7" edge="1">
          <mxGeometry relative="1" as="geometry" />
        </mxCell>
        <mxCell id="9_ySemquCze8BxVINl9N-22" value="Mã giảm giá không hợp lệ" style="edgeLabel;html=1;align=center;verticalAlign=middle;resizable=0;points=[];" parent="9_ySemquCze8BxVINl9N-18" vertex="1" connectable="0">
          <mxGeometry x="0.125" relative="1" as="geometry">
            <mxPoint as="offset" />
          </mxGeometry>
        </mxCell>
        <mxCell id="9_ySemquCze8BxVINl9N-24" style="edgeStyle=orthogonalEdgeStyle;rounded=0;orthogonalLoop=1;jettySize=auto;html=1;entryX=0.5;entryY=0;entryDx=0;entryDy=0;" parent="WIyWlLk6GJQsqaUBKTNV-1" source="9_ySemquCze8BxVINl9N-2" target="9_ySemquCze8BxVINl9N-21" edge="1">
          <mxGeometry relative="1" as="geometry" />
        </mxCell>
        <mxCell id="9_ySemquCze8BxVINl9N-25" value="Mã giảm giá hợp lệ" style="edgeLabel;html=1;align=center;verticalAlign=middle;resizable=0;points=[];" parent="9_ySemquCze8BxVINl9N-24" vertex="1" connectable="0">
          <mxGeometry x="-0.0571" y="3" relative="1" as="geometry">
            <mxPoint as="offset" />
          </mxGeometry>
        </mxCell>
        <mxCell id="9_ySemquCze8BxVINl9N-2" value="Kiểm tra mã giảm giá" style="strokeWidth=2;html=1;shape=mxgraph.flowchart.decision;whiteSpace=wrap;" parent="WIyWlLk6GJQsqaUBKTNV-1" vertex="1">
          <mxGeometry x="520" y="240" width="100" height="100" as="geometry" />
        </mxCell>
        <mxCell id="9_ySemquCze8BxVINl9N-19" style="edgeStyle=orthogonalEdgeStyle;rounded=0;orthogonalLoop=1;jettySize=auto;html=1;" parent="WIyWlLk6GJQsqaUBKTNV-1" source="9_ySemquCze8BxVINl9N-7" target="9_ySemquCze8BxVINl9N-14" edge="1">
          <mxGeometry relative="1" as="geometry" />
        </mxCell>
        <mxCell id="9_ySemquCze8BxVINl9N-7" value="Thông báo cho người dùng, khoá nút đặt hàng" style="rounded=1;whiteSpace=wrap;html=1;absoluteArcSize=1;arcSize=14;strokeWidth=2;" parent="WIyWlLk6GJQsqaUBKTNV-1" vertex="1">
          <mxGeometry x="520" y="60" width="100" height="100" as="geometry" />
        </mxCell>
        <mxCell id="9_ySemquCze8BxVINl9N-16" style="edgeStyle=orthogonalEdgeStyle;rounded=0;orthogonalLoop=1;jettySize=auto;html=1;entryX=0.5;entryY=0;entryDx=0;entryDy=0;" parent="WIyWlLk6GJQsqaUBKTNV-1" source="9_ySemquCze8BxVINl9N-11" target="9_ySemquCze8BxVINl9N-1" edge="1">
          <mxGeometry relative="1" as="geometry" />
        </mxCell>
        <mxCell id="9_ySemquCze8BxVINl9N-17" style="edgeStyle=orthogonalEdgeStyle;rounded=0;orthogonalLoop=1;jettySize=auto;html=1;entryX=0;entryY=0.5;entryDx=0;entryDy=0;" parent="WIyWlLk6GJQsqaUBKTNV-1" source="9_ySemquCze8BxVINl9N-11" target="9_ySemquCze8BxVINl9N-14" edge="1">
          <mxGeometry relative="1" as="geometry" />
        </mxCell>
        <mxCell id="9_ySemquCze8BxVINl9N-11" value="Lấy thông tin người dùng hiện tại và hiển thị" style="rounded=1;whiteSpace=wrap;html=1;absoluteArcSize=1;arcSize=14;strokeWidth=2;" parent="WIyWlLk6GJQsqaUBKTNV-1" vertex="1">
          <mxGeometry x="80" y="240" width="100" height="100" as="geometry" />
        </mxCell>
        <mxCell id="9_ySemquCze8BxVINl9N-14" value="Nhập mã giảm giá" style="rounded=1;whiteSpace=wrap;html=1;absoluteArcSize=1;arcSize=14;strokeWidth=2;" parent="WIyWlLk6GJQsqaUBKTNV-1" vertex="1">
          <mxGeometry x="300" y="240" width="100" height="100" as="geometry" />
        </mxCell>
        <mxCell id="9_ySemquCze8BxVINl9N-20" style="edgeStyle=orthogonalEdgeStyle;rounded=0;orthogonalLoop=1;jettySize=auto;html=1;entryX=0;entryY=0.5;entryDx=0;entryDy=0;entryPerimeter=0;" parent="WIyWlLk6GJQsqaUBKTNV-1" source="9_ySemquCze8BxVINl9N-14" target="9_ySemquCze8BxVINl9N-2" edge="1">
          <mxGeometry relative="1" as="geometry" />
        </mxCell>
        <mxCell id="9_ySemquCze8BxVINl9N-27" style="edgeStyle=orthogonalEdgeStyle;rounded=0;orthogonalLoop=1;jettySize=auto;html=1;entryX=0;entryY=0.5;entryDx=0;entryDy=0;" parent="WIyWlLk6GJQsqaUBKTNV-1" source="9_ySemquCze8BxVINl9N-21" target="9_ySemquCze8BxVINl9N-26" edge="1">
          <mxGeometry relative="1" as="geometry" />
        </mxCell>
        <mxCell id="9_ySemquCze8BxVINl9N-21" value="Cập nhật giao diện đơn hàng" style="rounded=1;whiteSpace=wrap;html=1;absoluteArcSize=1;arcSize=14;strokeWidth=2;" parent="WIyWlLk6GJQsqaUBKTNV-1" vertex="1">
          <mxGeometry x="520" y="410" width="100" height="100" as="geometry" />
        </mxCell>
        <mxCell id="9_ySemquCze8BxVINl9N-23" style="edgeStyle=orthogonalEdgeStyle;rounded=0;orthogonalLoop=1;jettySize=auto;html=1;entryX=-0.01;entryY=0.6;entryDx=0;entryDy=0;entryPerimeter=0;" parent="WIyWlLk6GJQsqaUBKTNV-1" source="9_ySemquCze8BxVINl9N-28" target="9_ySemquCze8BxVINl9N-21" edge="1">
          <mxGeometry relative="1" as="geometry" />
        </mxCell>
        <mxCell id="9_ySemquCze8BxVINl9N-32" value="Hợp lệ" style="edgeLabel;html=1;align=center;verticalAlign=middle;resizable=0;points=[];" parent="9_ySemquCze8BxVINl9N-23" vertex="1" connectable="0">
          <mxGeometry x="-0.0072" relative="1" as="geometry">
            <mxPoint as="offset" />
          </mxGeometry>
        </mxCell>
        <mxCell id="9_ySemquCze8BxVINl9N-26" value="Nhấn đặt hàng" style="rounded=1;whiteSpace=wrap;html=1;absoluteArcSize=1;arcSize=14;strokeWidth=2;" parent="WIyWlLk6GJQsqaUBKTNV-1" vertex="1">
          <mxGeometry x="840" y="410" width="100" height="100" as="geometry" />
        </mxCell>
        <mxCell id="9_ySemquCze8BxVINl9N-29" value="" style="edgeStyle=orthogonalEdgeStyle;rounded=0;orthogonalLoop=1;jettySize=auto;html=1;entryX=0;entryY=0.5;entryDx=0;entryDy=0;entryPerimeter=0;" parent="WIyWlLk6GJQsqaUBKTNV-1" source="9_ySemquCze8BxVINl9N-1" target="9_ySemquCze8BxVINl9N-28" edge="1">
          <mxGeometry relative="1" as="geometry">
            <mxPoint x="180" y="470" as="sourcePoint" />
            <mxPoint x="519" y="470" as="targetPoint" />
            <Array as="points" />
          </mxGeometry>
        </mxCell>
        <mxCell id="9_ySemquCze8BxVINl9N-30" style="edgeStyle=orthogonalEdgeStyle;rounded=0;orthogonalLoop=1;jettySize=auto;html=1;entryX=0.5;entryY=0;entryDx=0;entryDy=0;" parent="WIyWlLk6GJQsqaUBKTNV-1" source="9_ySemquCze8BxVINl9N-28" target="9_ySemquCze8BxVINl9N-1" edge="1">
          <mxGeometry relative="1" as="geometry">
            <Array as="points">
              <mxPoint x="330" y="400" />
              <mxPoint x="130" y="400" />
            </Array>
          </mxGeometry>
        </mxCell>
        <mxCell id="9_ySemquCze8BxVINl9N-31" value="Không hợp lệ" style="edgeLabel;html=1;align=center;verticalAlign=middle;resizable=0;points=[];" parent="9_ySemquCze8BxVINl9N-30" vertex="1" connectable="0">
          <mxGeometry x="-0.0333" y="1" relative="1" as="geometry">
            <mxPoint as="offset" />
          </mxGeometry>
        </mxCell>
        <mxCell id="9_ySemquCze8BxVINl9N-28" value="Kiểm tra thông tin người dùng" style="strokeWidth=2;html=1;shape=mxgraph.flowchart.decision;whiteSpace=wrap;" parent="WIyWlLk6GJQsqaUBKTNV-1" vertex="1">
          <mxGeometry x="280" y="420" width="100" height="100" as="geometry" />
        </mxCell>
        <mxCell id="9_ySemquCze8BxVINl9N-37" style="edgeStyle=orthogonalEdgeStyle;rounded=0;orthogonalLoop=1;jettySize=auto;html=1;" parent="WIyWlLk6GJQsqaUBKTNV-1" source="9_ySemquCze8BxVINl9N-33" target="9_ySemquCze8BxVINl9N-36" edge="1">
          <mxGeometry relative="1" as="geometry" />
        </mxCell>
        <mxCell id="9_ySemquCze8BxVINl9N-33" value="Tính toán tổng số tiền" style="rounded=1;whiteSpace=wrap;html=1;absoluteArcSize=1;arcSize=14;strokeWidth=2;" parent="WIyWlLk6GJQsqaUBKTNV-1" vertex="1">
          <mxGeometry x="520" y="560" width="100" height="100" as="geometry" />
        </mxCell>
        <mxCell id="9_ySemquCze8BxVINl9N-43" style="edgeStyle=orthogonalEdgeStyle;rounded=0;orthogonalLoop=1;jettySize=auto;html=1;entryX=1;entryY=0.5;entryDx=0;entryDy=0;" parent="WIyWlLk6GJQsqaUBKTNV-1" source="9_ySemquCze8BxVINl9N-36" target="9_ySemquCze8BxVINl9N-42" edge="1">
          <mxGeometry relative="1" as="geometry" />
        </mxCell>
        <mxCell id="9_ySemquCze8BxVINl9N-45" value="Thành công" style="edgeLabel;html=1;align=center;verticalAlign=middle;resizable=0;points=[];" parent="9_ySemquCze8BxVINl9N-43" vertex="1" connectable="0">
          <mxGeometry x="0.35" relative="1" as="geometry">
            <mxPoint x="18" as="offset" />
          </mxGeometry>
        </mxCell>
        <mxCell id="9_ySemquCze8BxVINl9N-36" value="Lưu trữ đơn hàng và chuyển trạng thái PROCESSING" style="rounded=1;whiteSpace=wrap;html=1;absoluteArcSize=1;arcSize=14;strokeWidth=2;" parent="WIyWlLk6GJQsqaUBKTNV-1" vertex="1">
          <mxGeometry x="520" y="720" width="100" height="100" as="geometry" />
        </mxCell>
        <mxCell id="9_ySemquCze8BxVINl9N-38" value="End" style="strokeWidth=2;html=1;shape=mxgraph.flowchart.start_2;whiteSpace=wrap;" parent="WIyWlLk6GJQsqaUBKTNV-1" vertex="1">
          <mxGeometry x="80" y="910" width="100" height="100" as="geometry" />
        </mxCell>
        <mxCell id="9_ySemquCze8BxVINl9N-39" style="edgeStyle=orthogonalEdgeStyle;rounded=0;orthogonalLoop=1;jettySize=auto;html=1;entryX=1;entryY=0.5;entryDx=0;entryDy=0;entryPerimeter=0;" parent="WIyWlLk6GJQsqaUBKTNV-1" source="9_ySemquCze8BxVINl9N-36" target="9_ySemquCze8BxVINl9N-38" edge="1">
          <mxGeometry relative="1" as="geometry">
            <Array as="points">
              <mxPoint x="570" y="960" />
            </Array>
          </mxGeometry>
        </mxCell>
        <mxCell id="9_ySemquCze8BxVINl9N-41" value="Thất bại" style="edgeLabel;html=1;align=center;verticalAlign=middle;resizable=0;points=[];" parent="9_ySemquCze8BxVINl9N-39" vertex="1" connectable="0">
          <mxGeometry x="-0.7585" y="5" relative="1" as="geometry">
            <mxPoint as="offset" />
          </mxGeometry>
        </mxCell>
        <mxCell id="9_ySemquCze8BxVINl9N-44" style="edgeStyle=orthogonalEdgeStyle;rounded=0;orthogonalLoop=1;jettySize=auto;html=1;entryX=0.5;entryY=0;entryDx=0;entryDy=0;entryPerimeter=0;" parent="WIyWlLk6GJQsqaUBKTNV-1" source="0Z1Qms26-1wscKYkfiGC-0" target="9_ySemquCze8BxVINl9N-38" edge="1">
          <mxGeometry relative="1" as="geometry">
            <mxPoint x="120" y="770" as="targetPoint" />
          </mxGeometry>
        </mxCell>
        <mxCell id="9_ySemquCze8BxVINl9N-42" value="Giảm số lượng sản phẩm trong kho" style="rounded=1;whiteSpace=wrap;html=1;absoluteArcSize=1;arcSize=14;strokeWidth=2;" parent="WIyWlLk6GJQsqaUBKTNV-1" vertex="1">
          <mxGeometry x="290" y="720" width="100" height="100" as="geometry" />
        </mxCell>
        <mxCell id="0Z1Qms26-1wscKYkfiGC-1" value="" style="edgeStyle=orthogonalEdgeStyle;rounded=0;orthogonalLoop=1;jettySize=auto;html=1;entryX=1;entryY=0.5;entryDx=0;entryDy=0;" edge="1" parent="WIyWlLk6GJQsqaUBKTNV-1" source="9_ySemquCze8BxVINl9N-42" target="0Z1Qms26-1wscKYkfiGC-0">
          <mxGeometry relative="1" as="geometry">
            <mxPoint x="130" y="910" as="targetPoint" />
            <mxPoint x="240" y="770" as="sourcePoint" />
          </mxGeometry>
        </mxCell>
        <mxCell id="0Z1Qms26-1wscKYkfiGC-0" value="Tạo giỏ hàng mới (Order PENDING) cho user" style="rounded=1;whiteSpace=wrap;html=1;absoluteArcSize=1;arcSize=14;strokeWidth=2;" vertex="1" parent="WIyWlLk6GJQsqaUBKTNV-1">
          <mxGeometry x="80" y="720" width="100" height="100" as="geometry" />
        </mxCell>
        <mxCell id="0Z1Qms26-1wscKYkfiGC-2" value="Kiểm tra dữ liệu đơn hàng" style="strokeWidth=2;html=1;shape=mxgraph.flowchart.decision;whiteSpace=wrap;" vertex="1" parent="WIyWlLk6GJQsqaUBKTNV-1">
          <mxGeometry x="840" y="570" width="100" height="100" as="geometry" />
        </mxCell>
        <mxCell id="0Z1Qms26-1wscKYkfiGC-3" style="edgeStyle=orthogonalEdgeStyle;rounded=0;orthogonalLoop=1;jettySize=auto;html=1;entryX=0.5;entryY=0;entryDx=0;entryDy=0;entryPerimeter=0;" edge="1" parent="WIyWlLk6GJQsqaUBKTNV-1" source="9_ySemquCze8BxVINl9N-26" target="0Z1Qms26-1wscKYkfiGC-2">
          <mxGeometry relative="1" as="geometry" />
        </mxCell>
        <mxCell id="0Z1Qms26-1wscKYkfiGC-4" style="edgeStyle=orthogonalEdgeStyle;rounded=0;orthogonalLoop=1;jettySize=auto;html=1;entryX=1;entryY=0.6;entryDx=0;entryDy=0;entryPerimeter=0;" edge="1" parent="WIyWlLk6GJQsqaUBKTNV-1" source="0Z1Qms26-1wscKYkfiGC-2" target="9_ySemquCze8BxVINl9N-33">
          <mxGeometry relative="1" as="geometry" />
        </mxCell>
        <mxCell id="0Z1Qms26-1wscKYkfiGC-5" value="Đơn hàng tồn tại trong csdl" style="edgeLabel;html=1;align=center;verticalAlign=middle;resizable=0;points=[];" vertex="1" connectable="0" parent="0Z1Qms26-1wscKYkfiGC-4">
          <mxGeometry x="0.1667" y="1" relative="1" as="geometry">
            <mxPoint as="offset" />
          </mxGeometry>
        </mxCell>
        <mxCell id="0Z1Qms26-1wscKYkfiGC-6" style="edgeStyle=orthogonalEdgeStyle;rounded=0;orthogonalLoop=1;jettySize=auto;html=1;entryX=1;entryY=0.5;entryDx=0;entryDy=0;entryPerimeter=0;" edge="1" parent="WIyWlLk6GJQsqaUBKTNV-1" source="0Z1Qms26-1wscKYkfiGC-2" target="9_ySemquCze8BxVINl9N-38">
          <mxGeometry relative="1" as="geometry">
            <Array as="points">
              <mxPoint x="890" y="960" />
            </Array>
          </mxGeometry>
        </mxCell>
        <mxCell id="0Z1Qms26-1wscKYkfiGC-8" value="Đơn hàng không tồn tại" style="edgeLabel;html=1;align=center;verticalAlign=middle;resizable=0;points=[];" vertex="1" connectable="0" parent="0Z1Qms26-1wscKYkfiGC-6">
          <mxGeometry x="-0.67" y="-4" relative="1" as="geometry">
            <mxPoint as="offset" />
          </mxGeometry>
        </mxCell>
      </root>
    </mxGraphModel>
  </diagram>
</mxfile>
